<svg xmlns="http://www.w3.org/2000/svg" xmlns:xlink="http://www.w3.org/1999/xlink" viewBox="0 0 200 54.34"><defs><style>.cls-1{fill:url(#linear-gradient);}.cls-2{fill:url(#linear-gradient-2);}.cls-3{fill:url(#linear-gradient-3);}.cls-4{fill:#231f20;}</style><linearGradient id="linear-gradient" x1="78.09" y1="-18046.39" x2="77.88" y2="-18082.4" gradientTransform="matrix(1, 0, 0, -1, 0, -18046.49)" gradientUnits="userSpaceOnUse"><stop offset="0" stop-color="#e07053"/><stop offset="1" stop-color="#ff8363"/></linearGradient><linearGradient id="linear-gradient-2" x1="52.02" y1="-18067.97" x2="81.17" y2="-18113.01" gradientTransform="matrix(1, 0, 0, -1, 0, -18046.49)" gradientUnits="userSpaceOnUse"><stop offset="0" stop-color="#ff6640"/><stop offset="1" stop-color="#d94b27"/></linearGradient><linearGradient id="linear-gradient-3" x1="101.14" y1="-18059.76" x2="63.59" y2="-18119.04" gradientTransform="matrix(1, 0, 0, -1, 0, -18046.49)" gradientUnits="userSpaceOnUse"><stop offset="0" stop-color="#eb4015"/><stop offset="1" stop-color="#d94b27"/></linearGradient></defs><title>icon-logo</title><g id="Слой_2" data-name="Слой 2"><g id="Content"><polygon class="cls-1" points="106.15 9.06 94.95 0 72.77 17.86 61.08 8.44 49.88 17.46 72.75 35.88 72.77 35.86 72.8 35.88 106.15 9.06"/><polygon class="cls-2" points="72.77 54.34 49.88 35.86 49.88 17.46 72.77 35.86 72.77 54.34"/><polygon class="cls-3" points="106.15 27.54 72.77 54.34 72.77 35.86 106.15 9.06 106.15 27.54"/><path class="cls-4" d="M0,18.13H10.54V21H3.25v4.11H10V28H3.25v6.71H0Z"/><path class="cls-4" d="M13.53,31.85h4.2V21h-4.2V18.13H25.21V21H21V31.85h4.22v2.89H13.53Z"/><path class="cls-4" d="M32.31,26.22l-4.7-8.09h3.8l2.42,4.51.54,1.21.53-1.21,2.47-4.51H41l-4.77,8.12,4.92,8.49h-3.8L34.85,30l-.64-1.29L33.59,30l-2.66,4.74H27.25Z"/><path class="cls-4" d="M114.28,18.29c.66-.12,1.4-.22,2.19-.29s1.6-.11,2.39-.11a16,16,0,0,1,2.48.2,6.12,6.12,0,0,1,2.24.81,4.61,4.61,0,0,1,1.63,1.68,5.56,5.56,0,0,1,.63,2.82,5.64,5.64,0,0,1-.55,2.6,5.15,5.15,0,0,1-1.44,1.78,6.21,6.21,0,0,1-2.06,1,9,9,0,0,1-2.38.32h-.93l-.56,0-.39-.05v5.72h-3.25Zm4.84,2.4a8.64,8.64,0,0,0-.9,0c-.29,0-.51.05-.69.08V26.2l.29.05.4,0h.71a6.75,6.75,0,0,0,1.27-.12,3,3,0,0,0,1.13-.43,2.31,2.31,0,0,0,.79-.9,3.18,3.18,0,0,0,.3-1.49,2.62,2.62,0,0,0-.28-1.29,2.28,2.28,0,0,0-.75-.82,2.85,2.85,0,0,0-1.06-.43A6.06,6.06,0,0,0,119.12,20.69Z"/><path class="cls-4" d="M128.45,18.13h10.9V21H131.7v3.87h7.05v2.9H131.7v4.06h7.77v2.89h-11Z"/><path class="cls-4" d="M151.55,25.89l.12-2.59h-.14l-2.66,4.35h-.57l-2.78-4.35h-.12l.14,2.33v9.11h-3.08V18.13h3.3l2.85,4.6h.09l2.83-4.6h3.27V34.74h-3.25Z"/><path class="cls-4" d="M157.32,26.44a15.59,15.59,0,0,1,.38-3.64,7.63,7.63,0,0,1,1.16-2.71,5.24,5.24,0,0,1,2-1.7,6.72,6.72,0,0,1,5.66.05,5.26,5.26,0,0,1,1.94,1.78A8.22,8.22,0,0,1,169.51,23a16.46,16.46,0,0,1,.34,3.49,11.27,11.27,0,0,1-1.55,6.35,5.34,5.34,0,0,1-4.72,2.29,6.15,6.15,0,0,1-2.9-.64,5.38,5.38,0,0,1-2-1.78,7.78,7.78,0,0,1-1.08-2.74A17.07,17.07,0,0,1,157.32,26.44Zm3.42,0c0,.8,0,1.55.1,2.25a7,7,0,0,0,.41,1.82,2.8,2.8,0,0,0,.85,1.22,2.29,2.29,0,0,0,1.48.45,2.52,2.52,0,0,0,1.38-.34,2.4,2.4,0,0,0,.88-1.06A5.83,5.83,0,0,0,166.3,29a21,21,0,0,0,.13-2.55c0-.78,0-1.52-.08-2.21A6.71,6.71,0,0,0,166,22.4a2.93,2.93,0,0,0-.87-1.25,2.32,2.32,0,0,0-1.52-.46,2.21,2.21,0,0,0-2.25,1.45A11.81,11.81,0,0,0,160.74,26.44Z"/><path class="cls-4" d="M181.22,27.79h-5.36v7h-3.25V18.13h3.25v6.76h5.36V18.13h3.25V34.74h-3.25Z"/><path class="cls-4" d="M189.17,32.13h2.71V20.74H189.6v2.87H187V18.13h13v5.48h-2.61V20.74h-2.26V32.13h2.69v2.61h-8.65Z"/></g></g></svg>